<svg aria-hidden="true" style="width:0;height:0;position:absolute;overflow:hidden" xmlns="http://www.w3.org/2000/svg"><defs><symbol id="icon-6" viewBox="0 0 32 32"><path fill="#f1e324" style="fill:var(--color1,#f1e324)" d="M16 28c6.628 0 12-5.372 12-12S22.628 4 16 4 4 9.372 4 16s5.372 12 12 12z"/><path fill="#ff6b08" style="fill:var(--color2,#ff6b08)" d="M16 24.808a8.809 8.809 0 1 0-.001-17.617A8.809 8.809 0 0 0 16 24.808z"/><path fill="#f1e324" style="fill:var(--color1,#f1e324)" d="M16 22.648c3.672 0 6.648-2.976 6.648-6.648S19.672 9.352 16 9.352c-3.672 0-6.648 2.976-6.648 6.648s2.976 6.648 6.648 6.648z"/><path fill="#ff6b0a" style="fill:var(--color3,#ff6b0a)" d="M22.752 4H24.8a3.2 3.2 0 0 1 0 6.4h-2.048a3.2 3.2 0 0 1 0-6.4z"/><path fill="#010101" style="fill:var(--color4,#010101)" d="m24.208 5.8-1.2 2.8h-.64l-1.2-2.8h.7l.852 2 .864-2h.624zm.236 0h.648v2.8h-.648V5.8zm1.312 0h.644v2.8h-.644V5.8z"/><path fill="#f1e324" style="fill:var(--color1,#f1e324)" d="m9.284 14.668 4.108 2.084.124-.376L16 8.98l2.496 7.396.128.376.324-.164 3.78-1.92-2.52 8h-8.4l-2.524-8z"/><path fill="#efaf2e" style="fill:var(--color5,#efaf2e)" d="m12.844 17.5 1.78.9.152.08.06-.176L16 14.82l1.2 3.488.06.176.152-.08L19.2 17.5 18 21.268h-3.972L12.844 17.5z"/><path fill="#f1e324" style="fill:var(--color1,#f1e324)" d="M8.844 14.82c.322 0 .584-.294.584-.656s-.262-.656-.584-.656c-.322 0-.584.294-.584.656s.262.656.584.656zm7.168-5.84c.322 0 .584-.294.584-.656s-.262-.656-.584-.656c-.322 0-.584.294-.584.656s.262.656.584.656zm7.144 5.804c.322 0 .584-.294.584-.656s-.262-.656-.584-.656c-.322 0-.584.294-.584.656s.262.656.584.656z"/></symbol><symbol id="icon-2" viewBox="0 0 32 32"><path fill="#35bfb7" style="fill:var(--color6,#35bfb7)" d="M16 28c6.628 0 12-5.372 12-12S22.628 4 16 4 4 9.372 4 16s5.372 12 12 12z"/><path fill="#ff6b0a" style="fill:var(--color3,#ff6b0a)" d="M24.8 10.4a3.2 3.2 0 0 0 0-6.4 3.2 3.2 0 0 0 0 6.4z"/><path fill="#010101" style="fill:var(--color4,#010101)" d="M23.82 5.8h.648v2.8h-.648V5.8zm1.312 0h.648v2.8h-.648V5.8z"/><path fill="#ff6b08" style="fill:var(--color2,#ff6b08)" d="M18.32 8.996h-4.532v2.92h4.532v-2.92zM10.968 16.6l.632.2c.17-.829.447-1.565.82-2.24l-.02.04a9.075 9.075 0 0 1 1.357-1.885l-.005.005-.632-.2a7.543 7.543 0 0 0-1.428 1.868l-.02.04a6.194 6.194 0 0 0-.7 2.139l-.004.033zm10.16-.016-.632.2a7.828 7.828 0 0 0-.82-2.24l.02.04a9.262 9.262 0 0 0-1.353-1.886l.005.006.632-.196a7.648 7.648 0 0 1 1.44 1.853l.02.039c.342.632.585 1.37.685 2.153l.003.031z"/><path fill="#ff6b08" style="fill:var(--color2,#ff6b08)" d="M19.008 11.912H13.1v7.272h5.908v-7.272z"/><path fill="#1e6058" style="fill:var(--color7,#1e6058)" d="M17.552 9.8h-3v.656h3V9.8z"/><path fill="#ff6b08" style="fill:var(--color2,#ff6b08)" d="M17.552 19.188h-.6v3.552h.6v-3.552zm-2.448 0h-.6v3.552h.6v-3.552zm6.836-1.752a1.2 1.2 0 0 1-.566 1.293l-.006.003c-.12.06-.088-.988-.148-1.028a2.603 2.603 0 0 0-.496.072c-.132.024-.324.06-.304.172.068.352.296.912.176.94-.212.052-.828-.4-.936-1a1.247 1.247 0 0 1 .915-1.43l.009-.002a1.163 1.163 0 0 1 1.355.974l.001.006zm-9.604.204a1.134 1.134 0 0 1-.946 1.015l-.007.001c-.136 0 .232-.964.192-1.02a2.44 2.44 0 0 0-.479-.111l-.013-.001c-.132-.024-.324-.06-.34.052-.052.356-.02.964-.136.952-.22-.028-.648-.692-.56-1.28a1.2 1.2 0 0 1 1.333-1.011l-.006-.001a1.202 1.202 0 0 1 .959 1.412l.001-.008z"/><path fill="#ff6b08" style="fill:var(--color2,#ff6b08)" d="M16.4 23.004a.897.897 0 0 1 1.739-.006l.001.006zM13.832 23.004a.8.8 0 0 1 .791-.68c.029 0 .057.002.085.004h-.003a.8.8 0 0 1 .867.671l.001.005z"/><path fill="#1e6058" style="fill:var(--color7,#1e6058)" d="M17.244 15.552c.475 0 .86-.406.86-.908s-.385-.908-.86-.908-.86.406-.86.908.385.908.86.908zm-.408 1.668h-2.708v.916h2.708v-.916z"/><path fill="#f1e324" style="fill:var(--color1,#f1e324)" d="M13.292 13.472a.84.84 0 1 0 0-1.68.84.84 0 1 0 0 1.68zm5.512 0a.84.84 0 1 0 0-1.68.84.84 0 1 0 0 1.68z"/></symbol><symbol id="icon-1" viewBox="0 0 32 32"><path fill="#d7d9dc" style="fill:var(--color8,#d7d9dc)" d="M16 28c6.628 0 12-5.372 12-12S22.628 4 16 4 4 9.372 4 16s5.372 12 12 12z"/><path fill="#717777" style="fill:var(--color9,#717777)" d="M18.596 28c0 4.692-3.744 4.664-6.868 4.664s-5.656-3.564-5.656-7.96 2.532-7.956 5.656-7.956 6.88 5.28 6.868 11.252z"/><path fill="#afafaf" style="fill:var(--color10,#afafaf)" d="M24.8 10.4a3.2 3.2 0 0 0 0-6.4 3.2 3.2 0 0 0 0 6.4z"/><path fill="#010101" style="fill:var(--color4,#010101)" d="M24.476 5.8h.648v2.8h-.648V5.8zm-9.5.82c-.8 0 .46-.56-.352-.756s-2.768-.756-3.256 0-1.3.996-2.448 1.6-1.244.9-.992 1.656c.135.64.492 1.18.985 1.547l.007.005c.66.548.7.252.7 1.152s-.04 1.904.56.952-.448-1.712.544-2.508 1.736-1.6 2.4-1.148 1.676.88 2.2.444a3.72 3.72 0 0 0 .791-.881l.009-.015c.596-.208 1.6-.736.896-1.2-.9-.596-1.236-.848-2.044-.848z"/><path fill="#f1f1f0" style="fill:var(--color11,#f1f1f0)" d="M15.708 6.4a4.202 4.202 0 0 1 1.2 2.839v.005c.06 2.052.096 4.32.024 5.416-.152 2.268-2.476 2.5-2.476 2.5v1.272l-.064.036a5.296 5.296 0 0 1-2.48.608 5.34 5.34 0 0 1-2.866-.829l.022.013-.076-5.6a1.087 1.087 0 0 1-.908-.968v-.004c-.216-.992.4-1.26.876-1.324v-.86c-.076-2.368 1.256-4.4 3.66-4.4h.22a4.331 4.331 0 0 1 2.867 1.295l.001.001z"/><path fill="#010101" style="fill:var(--color4,#010101)" d="M8.996 10.4h.036v-.04h-.044l.008.04zm-.924 1.296zm.992.96v-.04h-.036v.044l.036-.004zm0 5.6v.024h.02l.024-.036-.044.012zm5.388.244zm.064-.032h.02v-.024h-.04l.02.024zm-.036-1.356h-.04v.04h.04v-.04zm1.288-10.744zm-3.104-1.2h.224v-.084h-.224v.084zm-3.6 4.36a4.687 4.687 0 0 1 .897-3.07l-.009.013a3.35 3.35 0 0 1 2.732-1.304h-.004v-.084l-.078-.001c-1.104 0-2.087.52-2.716 1.329l-.006.008a4.76 4.76 0 0 0-.903 3.126l-.001-.014.088-.004zm0 .856v-.856H8.98v.856h.084zm-.048-.04a1.23 1.23 0 0 0-.716.328 1.086 1.086 0 0 0-.194 1.059l-.002-.008h.08a1.023 1.023 0 0 1 .178-.974l-.001.002a1.14 1.14 0 0 1 .629-.351l.007-.001.02-.056zm-.912 1.38c.052.291.188.544.38.74.156.142.351.233.56.26v-.084a.93.93 0 0 1-.517-.241l.001.001a1.304 1.304 0 0 1-.355-.688l-.001-.008-.068.02zm1.064 6.548-.072-5.6h-.088l.076 5.6h.084zm2.596.768a5.28 5.28 0 0 1-2.638-.813l.022.013-.044.072a5.319 5.319 0 0 0 2.647.8h.009l.004-.072zm2.636-.64a5.207 5.207 0 0 1-2.679.599h.011v.084a5.33 5.33 0 0 0 2.741-.622l-.029.014-.044-.076zm.064-.032-.064.032.04.076.064-.032-.04-.076zm-.032-1.236v1.264h.084v-1.272h-.084v.008zm2.472-2.504a2.438 2.438 0 0 1-1.259 2.062l-.013.006c-.23.132-.496.243-.776.319l-.024.005c-.108.028-.2.044-.264.056h-.096v.124h.104l.268-.06c.314-.084.59-.2.844-.349l-.016.009a2.529 2.529 0 0 0 1.316-2.132v-.004l-.084-.036zm0-5.412c.056 2.052.092 4.32 0 5.412h.084c.072-1.096.036-3.368 0-5.416l-.084.004zm-1.2-2.8a4.139 4.139 0 0 1 1.2 2.794v.006h.084a4.224 4.224 0 0 0-1.232-2.872l-.052.072zm-2.8-1.264a4.266 4.266 0 0 1 2.8 1.264l.06-.06a4.34 4.34 0 0 0-2.865-1.288h-.011l.016.084z"/><path style="fill:var(--color12,#000)" d="M16.304 10.072a.352.352 0 0 0-.08-.112.446.446 0 0 0-.117-.071l-.003-.001a.332.332 0 0 0-.146.001h.002-.008c-.1 0-.191.036-.261.097h.001a.326.326 0 0 0-.116.239v.005c0 .094.042.179.108.236.034.03.074.055.117.071l.003.001a.296.296 0 0 0 .12.025l.025-.001h-.001.008c.1 0 .191-.036.261-.097h-.001a.326.326 0 0 0 .116-.239v-.001l.001-.024a.296.296 0 0 0-.03-.13l.001.002z"/><path fill="#010101" style="fill:var(--color4,#010101)" d="M13.02 10.072a.414.414 0 0 0-.072-.112.386.386 0 0 0-.106-.071l-.002-.001a.284.284 0 0 0-.13.001h.002-.011a.31.31 0 0 0-.225.096.353.353 0 0 0-.108.239v.001c.002.045.011.09.028.132s.041.079.072.108c.03.03.066.055.106.071l.002.001c.03.016.066.025.104.025l.021-.001H12.7h.01c.09 0 .171-.037.23-.096a.347.347 0 0 0 .104-.24l.001-.02a.377.377 0 0 0-.025-.135l.001.002zM12.964 8.72a1.384 1.384 0 0 0-.638.063l.01-.003a1.36 1.36 0 0 0-.54.324c-.112.12-.148.22-.116.252s.24-.232.636-.36c.396-.128.884-.048.884-.148s-.072-.104-.236-.128zm3.46.308a.898.898 0 0 0-.433-.11l-.062.002h.003a.88.88 0 0 0-.47.181l.002-.002c-.1.088-.132.172-.104.208s.288-.164.58-.18c.292-.016.56.176.616.092s-.02-.12-.132-.192z"/><path fill="#010101" style="fill:var(--color4,#010101)" d="M14.888 5.2c-.8 0 .464-.56-.348-.756s-2.768-.756-3.256 0-1.3.992-2.448 1.6-1.236.88-.992 1.636a2.6 2.6 0 0 0 .985 1.551l.007.005c.66.548.7.252.7 1.148s-.04 1.904.56.952-.448-1.708.544-2.508 1.732-1.6 2.4-1.148 1.664.896 2.208.448c.314-.252.58-.548.791-.881l.009-.015c.596-.204 1.6-.732.896-1.2-.908-.592-1.244-.832-2.056-.832z"/><path fill="#010101" style="fill:var(--color4,#010101)" d="m13.796 10.088.288.348h.48l.092.208-.524.124-.344.32-2.308-.044-.424-1.204 2.74.248z"/><path fill="#010101" style="fill:var(--color4,#010101)" d="m15.064 10.06-.288.348h-.752l.108.36.596-.028.344.32 2.308-.044.428-1.204-2.744.248zM11.196 9.856l-2.56-.208v.28l2.74.388-.18-.46z"/></symbol><symbol id="icon-3" viewBox="0 0 32 32"><path fill="#00a198" style="fill:var(--color13,#00a198)" d="M16 28c6.628 0 12-5.372 12-12S22.628 4 16 4 4 9.372 4 16s5.372 12 12 12z"/><path fill="#ff6b0a" style="fill:var(--color3,#ff6b0a)" d="M24.8 10.4a3.2 3.2 0 0 0 0-6.4 3.2 3.2 0 0 0 0 6.4z"/><path fill="#010101" style="fill:var(--color4,#010101)" d="M23.164 5.8h.648v2.8h-.648V5.8zm1.312 0h.648v2.8h-.648V5.8zm1.312 0h.648v2.8h-.648V5.8z"/><path fill="#d7f463" style="fill:var(--color14,#d7f463)" d="M6.436 9.816 4.708 22.8v.006a.112.112 0 0 0 .173.094l1.12-.596a.327.327 0 0 1 .4.08v.001l1.396 1.836.584-7.728-1.944-6.676z"/><path fill="#d7f463" style="fill:var(--color14,#d7f463)" d="m6.424 10.144-1.56 12.344v.003a.152.152 0 0 0 .244.121l.8-.528a.4.4 0 0 1 .551.087l.001.001.948 1.284c.048.064.164.028.156-.048L6.472 10.144c0-.024-.044-.028-.048 0z"/><path fill="#d7f463" style="fill:var(--color14,#d7f463)" d="M6.16 22c.128 0 .242.061.315.155l.001.001.948 1.284c.048.064.164.028.156-.048l-.132-1.624L6.14 22h.02z"/><path fill="#010101" style="fill:var(--color4,#010101)" d="m6.472 9.808 1.32 14.412 15.4-2.6-3.62-11.236-13.1-.576z"/><path fill="#d7f463" style="fill:var(--color14,#d7f463)" d="m7.184 10.12.908 13.34 14.484-2.332-3.056-10.364-12.336-.644z"/><path fill="#fff" style="fill:var(--color15,#fff)" d="m8.072 16.684.688 6.324 13.156-2.12-1.22-4.752-12.624.548z"/><path fill="#d7f463" style="fill:var(--color14,#d7f463)" d="m6.852 9.976 12.608.6s1.228 3.256 2.448 5.096a3.853 3.853 0 0 0 3.205 1.716h.032-.002c-2.149 1.074-4.863 2.226-7.647 3.231l-.573.181c-2.036.699-4.409 1.215-6.864 1.45l-.128.01S6.975 18.7 6.851 9.976z"/><path fill="#fff" style="fill:var(--color15,#fff)" d="M8.296 9.396c-.232 0-.4.184-.456.472h.24c.036-.168.112-.272.216-.272s.26.176.26.428-.136.428-.26.428a.108.108 0 0 0-.129.106c0 .06.048.108.108.108l.021-.002h-.001a.58.58 0 0 0 .503-.63v.002a.576.576 0 0 0-.501-.64h-.003zm2.08.092c-.236 0-.4.184-.456.472h.24c.036-.168.112-.272.216-.272s.26.176.26.428-.136.428-.26.428a.108.108 0 0 0-.129.106c0 .06.048.108.108.108l.021-.002h-.001a.577.577 0 0 0 .5-.643v.003a.576.576 0 0 0-.497-.628h-.003zm2.08.112c-.236 0-.4.184-.456.472h.24c.036-.164.108-.272.216-.272s.26.176.26.428-.136.428-.26.428a.108.108 0 0 0-.129.106c0 .06.048.108.108.108l.021-.002h-.001a.577.577 0 0 0 .5-.643v.003a.576.576 0 0 0-.497-.628h-.003zm2.08.072c-.236 0-.4.184-.456.472h.24c.036-.164.108-.272.216-.272s.26.176.26.428-.14.428-.26.428a.108.108 0 0 0-.129.106c0 .06.048.108.108.108l.021-.002h-.001a.577.577 0 0 0 .5-.643v.003c.002-.016.002-.034.002-.053a.58.58 0 0 0-.499-.574h-.003zm2.116.084c-.236 0-.4.184-.456.472h.24c.036-.168.112-.272.216-.272s.26.176.26.428-.136.428-.26.428a.108.108 0 0 0-.129.106c0 .06.048.108.108.108l.021-.002h-.001a.576.576 0 0 0 .499-.626v.002a.576.576 0 0 0-.497-.643h-.003zm2.032.096c-.232 0-.4.184-.456.472h.24c.04-.168.112-.272.216-.272s.264.176.264.428-.148.44-.264.44a.108.108 0 0 0-.129.106c0 .06.048.108.108.108l.021-.002h-.001c.284 0 .5-.28.5-.64s-.216-.64-.5-.64zM21.492 15.68a28.765 28.765 0 0 1-2.03-3.932l-.074-.196-11.264-.4c0 7.372 2.512 10.42 2.512 10.42a28 28 0 0 0 6.361-1.354l-.197.058c3.18-1.052 6.972-2.8 6.972-2.8s-1.2-.172-2.28-1.796z"/><path fill="#010101" style="fill:var(--color4,#010101)" d="m19.388 11.552-11.264-.4c0 .728.024 1.408.068 2.052l11.896-.1a47.23 47.23 0 0 1-.7-1.552z"/><path fill="#eb1e31" style="fill:var(--color16,#eb1e31)" d="m12.988 12.592-4.056-.048h-.006a.126.126 0 0 1-.126-.107v-.001l-.036-.292v-.005a.125.125 0 0 1 .137-.123H8.9l4 .06h.004c.057 0 .106.036.124.087v.001l.08.276a.124.124 0 0 1-.12.152zm-.424 7.816a3.076 3.076 0 1 0 0-6.152 3.076 3.076 0 1 0 0 6.152z"/><path fill="#fff" style="fill:var(--color15,#fff)" d="M12.524 19.772a2.376 2.376 0 0 0 0-4.752 2.376 2.376 0 0 0 0 4.752z"/><path fill="#eb1e31" style="fill:var(--color16,#eb1e31)" d="m12.168 18.708.204.168.164-.204 1.528-1.928.176-.224-.24-.152-.204-.132-.196-.128-.144.184-1.2 1.524-.78-.652-.164.144-.18.152-.232.2.236.196 1.032.852z"/></symbol><symbol id="icon-5" viewBox="0 0 32 32"><path fill="#273da4" style="fill:var(--color17,#273da4)" d="M16 28c6.628 0 12-5.372 12-12S22.628 4 16 4 4 9.372 4 16s5.372 12 12 12z"/><path fill="#f1e324" style="fill:var(--color1,#f1e324)" d="m15.48 9.376 4.496.356-4.352 6.032 6.352-.18-11.084 8.796 3.552-6.4-4.816.196 5.852-8.8z"/><path style="fill:var(--color12,#000)" d="M11.872 8.508c-.972.072-1.472.144-2.352.168A7.983 7.983 0 0 1 11 6.919l.008-.007c.824-.072 1.224-.108 2-.116a5.369 5.369 0 0 0-1.123 1.677l-.013.035zm4.224.692c-.776-.376-1.028-.592-1.892-.704a2.62 2.62 0 0 1 .65-1.559l-.002.003c.593.151 1.172.356 1.728.612a2.125 2.125 0 0 0-.483 1.659l-.001-.011zm4.356 1.876c-.88-.376-1.352-.56-2.244-.932.1-.754.362-1.431.751-2.018l-.011.018c1.064.204 1.656.288 2.656.508a15.256 15.256 0 0 0-1.115 2.315l-.037.109zm3.116 2.156a2.582 2.582 0 0 0-1.056-1.193l-.012-.007c.496-1.12.732-1.672 1.164-2.676.421.223.741.589.9 1.031l.004.013c-.376 1.1-.568 1.672-1 2.832zm1.976 1.744c-.8-.036-1-.188-1.324-.572.368-1.2.548-1.776.896-2.928.296.328.488.448 1.328.376-.36 1.26-.54 1.88-.9 3.124z"/><path fill="#fff" style="fill:var(--color15,#fff)" d="M14.204 8.504a9.93 9.93 0 0 0-2.38.005l.048-.005a5.374 5.374 0 0 1 1.129-1.705L13 6.8a7.382 7.382 0 0 1 1.852.152 2.613 2.613 0 0 0-.648 1.544v.008zm4.004 1.64a32.97 32.97 0 0 1-2.112-.936 2.13 2.13 0 0 1 .487-1.651l-.003.003c.672.244 1.47.449 2.292.578l.076.01a4.694 4.694 0 0 0-.737 1.972l-.003.024zM22.5 12a11.298 11.298 0 0 0-1.966-.911l-.082-.025c.356-.935.742-1.728 1.188-2.482l-.04.073c.722.1 1.42.331 2.06.68a83.36 83.36 0 0 1-1.505 3.507l.345-.843zm1.72 2.4a5.464 5.464 0 0 1-.638-1.135l-.014-.037c.4-1.16.624-1.732 1-2.8.127.406.314.758.554 1.068l-.006-.008c-.348 1.14-.528 1.712-.896 2.912z"/><path style="fill:var(--color12,#000)" d="M10.12 12.488c-1.556.356-2.332.56-3.416.568.596-.8.88-1.288 1.436-2.192a19.317 19.317 0 0 0 3.048-.424l-.128.024a13.024 13.024 0 0 1-.974 2.087l.034-.063zM16.98 12c-.8-.504-1.5-.472-2.964-.288a4.941 4.941 0 0 0 .156-1.624c1.156-.032 1.66.048 2.356.548.233.392.393.854.45 1.348l.002.016zm1.94 3.824c-.308-.8-.4-1.26-.736-2.06a13.852 13.852 0 0 0-.053-1.819l.004.055c.6.592.884.908 1.488 1.5-.292.952-.424 1.424-.704 2.324zm2.456 3.308a19.217 19.217 0 0 0-1.388-1.429l-.012-.011c.488-1.084.74-1.66 1.252-2.8.517.337.94.776 1.25 1.29l.01.018a977.741 977.741 0 0 1-1.112 2.932zm2.348 2.024a2.155 2.155 0 0 1-1.413-.753l-.003-.003c.4-1.2.584-1.788.968-2.992.317.413.809.677 1.363.68h.001c-.364 1.224-.548 1.844-.916 3.068z"/><path fill="#fff" style="fill:var(--color15,#fff)" d="M14 11.696a34.74 34.74 0 0 0-4.141.857l.245-.057c.334-.571.651-1.238.91-1.933l.03-.091c.91-.204 1.978-.347 3.069-.398l.043-.002a4.927 4.927 0 0 1-.164 1.658l.008-.035zm4.184 2.068c-.332-.8-.4-1.276-1.2-1.78a3.465 3.465 0 0 0-.461-1.38l.009.016c.594.429 1.117.882 1.597 1.377l.003.003c.055.586.072 1.176.052 1.764zm1.792 3.928a4.604 4.604 0 0 1-1.048-1.835l-.008-.033c.292-.9.4-1.372.704-2.324.483.498 1.006.951 1.566 1.356l.034.024c-.508 1.152-.76 1.728-1.248 2.812zm2.332 2.708a12.067 12.067 0 0 1-.903-1.209l-.029-.047c.44-1.156.668-1.756 1.112-2.944.25.456.515.849.812 1.215l-.012-.015a436.6 436.6 0 0 0-.98 3z"/><path style="fill:var(--color12,#000)" d="M16.528 10.62c-.696-.5-1.2-.58-2.356-.548a9.013 9.013 0 0 1 .036-1.608l-.004.041c.864.112 1.116.328 1.892.704.048.525.202 1.004.441 1.43l-.009-.018zm3.096 2.88c-.604-.592-.888-.908-1.488-1.5a7 7 0 0 1 .079-1.898l-.006.042c.892.372 1.364.556 2.244.932-.261.62-.543 1.425-.784 2.249l-.044.175zm2.864 2.688a4.01 4.01 0 0 0-1.245-1.299l-.015-.009c.512-1.152.8-1.744 1.272-2.868.474.278.843.69 1.062 1.184l.006.016a191.62 191.62 0 0 1-1.08 2.976zm2.152 1.888a1.723 1.723 0 0 1-1.361-.676l-.003-.004c.4-1.2.576-1.804.944-2.992.324.4.516.536 1.324.572-.344 1.244-.54 1.864-.904 3.1z"/><path fill="#fff" style="fill:var(--color15,#fff)" d="M14.172 10.072a19.19 19.19 0 0 0-3.112.4c.324-.8.456-1.2.8-1.956a9.886 9.886 0 0 1 2.332 0 8.847 8.847 0 0 0-.018 1.586l-.002-.03zM18.136 12a11.872 11.872 0 0 0-1.566-1.356l-.035-.024a3.505 3.505 0 0 1-.439-1.406l-.001-.014c.772.376 1.2.564 2.112.936-.066.36-.104.775-.104 1.198 0 .235.012.466.034.695L18.135 12zm3.092 2.88a11.932 11.932 0 0 1-1.597-1.377l-.003-.003c.285-.999.567-1.804.888-2.589l-.06.165c.788.272 1.463.584 2.1.954L22.5 12c-.5 1.136-.76 1.728-1.272 2.88zm2.048 2.516a7.924 7.924 0 0 1-.779-1.159l-.021-.041c.44-1.2.66-1.792 1.08-2.956.174.412.397.801.664 1.16-.368 1.2-.56 1.796-.944 2.996z"/><path style="fill:var(--color12,#000)" d="M14.172 10.072a19.19 19.19 0 0 0-3.112.4c.324-.8.456-1.2.8-1.956a9.886 9.886 0 0 1 2.332 0 8.847 8.847 0 0 0-.018 1.586l-.002-.03zM18.136 12a11.872 11.872 0 0 0-1.566-1.356l-.035-.024a3.505 3.505 0 0 1-.439-1.406l-.001-.014c.772.376 1.2.564 2.112.936-.066.36-.104.775-.104 1.198 0 .235.012.466.034.695L18.135 12zm3.092 2.88a11.932 11.932 0 0 1-1.597-1.377l-.003-.003c.285-.999.567-1.804.888-2.589l-.06.165c.788.272 1.463.584 2.1.954L22.5 12c-.5 1.136-.76 1.728-1.272 2.88zm2.048 2.516a7.924 7.924 0 0 1-.779-1.159l-.021-.041c.44-1.2.66-1.792 1.08-2.956.174.412.397.801.664 1.16-.368 1.2-.56 1.796-.944 2.996z"/><path fill="#fff" style="fill:var(--color15,#fff)" d="M16.528 10.62c-.696-.5-1.2-.58-2.356-.548a9.013 9.013 0 0 1 .036-1.608l-.004.041c.864.112 1.116.328 1.892.704.048.525.202 1.004.441 1.43l-.009-.018zm-5.468-.156c-.962.208-1.938.342-2.92.4.556-.908.8-1.372 1.38-2.188.88-.024 1.38-.096 2.352-.168-.356.74-.488 1.148-.812 1.956zm8.564 3.036c-.604-.592-.888-.908-1.488-1.5a7 7 0 0 1 .079-1.898l-.006.042c.892.372 1.364.556 2.244.932-.261.62-.543 1.425-.784 2.249l-.044.175zm2.864 2.688a4.01 4.01 0 0 0-1.245-1.299l-.015-.009c.512-1.152.8-1.744 1.272-2.868.474.278.843.69 1.062 1.184l.006.016a191.62 191.62 0 0 1-1.08 2.976zm2.152 1.888a1.723 1.723 0 0 1-1.361-.676l-.003-.004c.4-1.2.576-1.804.944-2.992.324.4.516.536 1.324.572-.344 1.244-.54 1.864-.904 3.1z"/><path style="fill:var(--color12,#000)" d="M16.452 13.54c-.892-.528-1.688-.456-3.364-.192.446-.437.768-.999.908-1.63l.004-.022c1.464-.184 2.152-.216 2.964.288.06.576.012.876-.512 1.556zM18.024 18a22.263 22.263 0 0 0-.328-2.48c.306-.49.488-1.085.488-1.723v-.039.002c.336.8.428 1.244.736 2.06a11.254 11.254 0 0 1-.925 2.239l.029-.059zm2.284 3.896c-.468-.612-.948-.888-1.52-1.644.472-.952.704-1.472 1.2-2.56.492.456.949.926 1.381 1.418l.019.022-1.08 2.764zm2.492 2.296a2.633 2.633 0 0 1-1.444-.911l-.004-.005c.372-1.12.564-1.708.948-2.888a2.15 2.15 0 0 0 1.406.767l.01.001c-.36 1.244-.544 1.836-.916 3.036z"/><path fill="#fff" style="fill:var(--color15,#fff)" d="M13.088 13.348c-1.676.264-2.676.568-4.4.96a6.349 6.349 0 0 0 1.403-1.786l.017-.034a31.662 31.662 0 0 1 3.703-.776l.193-.024a3.29 3.29 0 0 1-.915 1.659l-.001.001zm4.608 2.176c-.224-.94-.348-1.46-1.244-2 .524-.68.572-.98.528-1.556.8.504.872.98 1.2 1.78l.001.059c0 .635-.18 1.228-.493 1.731l.008-.014zm1.104 4.728c-.572-.76-.636-1.256-.764-2.248.343-.621.648-1.344.875-2.1l.021-.08a4.613 4.613 0 0 0 1.059 1.871l-.003-.003a80.29 80.29 0 0 1-1.188 2.56zm2.56 3.024a16.472 16.472 0 0 1-1.015-1.324l-.037-.056c.4-1.044.628-1.6 1.068-2.764.309.48.616.894.947 1.286l-.015-.018c-.384 1.168-.576 1.756-.948 2.876z"/><path style="fill:var(--color12,#000)" d="M13.088 13.348c-1.676.264-2.676.568-4.4.96a6.349 6.349 0 0 0 1.403-1.786l.017-.034a31.662 31.662 0 0 1 3.703-.776l.193-.024a3.29 3.29 0 0 1-.915 1.659l-.001.001zm4.608 2.176c-.224-.94-.348-1.46-1.244-2 .524-.68.572-.98.528-1.556.8.504.872.98 1.2 1.78l.001.059c0 .635-.18 1.228-.493 1.731l.008-.014zm1.104 4.728c-.572-.76-.636-1.256-.764-2.248.343-.621.648-1.344.875-2.1l.021-.08a4.613 4.613 0 0 0 1.059 1.871l-.003-.003a80.29 80.29 0 0 1-1.188 2.56zm2.56 3.024a16.472 16.472 0 0 1-1.015-1.324l-.037-.056c.4-1.044.628-1.6 1.068-2.764.309.48.616.894.947 1.286l-.015-.018c-.384 1.168-.576 1.756-.948 2.876z"/><path fill="#fff" style="fill:var(--color15,#fff)" d="M16.452 13.54c-.892-.528-1.688-.456-3.364-.192.446-.437.768-.999.908-1.63l.004-.022c1.464-.184 2.152-.216 2.964.288.06.576.012.876-.512 1.556zM18.024 18a22.263 22.263 0 0 0-.328-2.48c.306-.49.488-1.085.488-1.723v-.039.002c.336.8.428 1.244.736 2.06a11.254 11.254 0 0 1-.925 2.239l.029-.059zm2.284 3.896c-.468-.612-.948-.888-1.52-1.644.472-.952.704-1.472 1.2-2.56.492.456.949.926 1.381 1.418l.019.022-1.08 2.764zm2.492 2.296a2.633 2.633 0 0 1-1.444-.911l-.004-.005c.372-1.12.564-1.708.948-2.888a2.15 2.15 0 0 0 1.406.767l.01.001c-.36 1.244-.544 1.836-.916 3.036zM8.7 14.308c-1.712.4-2.544.592-3.54.444a7.46 7.46 0 0 0 1.527-1.669l.017-.027c1.084 0 1.86-.212 3.416-.568a6.36 6.36 0 0 1-1.414 1.814l-.007.006z"/><path fill="#010101" style="fill:var(--color4,#010101)" d="m27.7 11.426-.154-.046a.414.414 0 0 0-.518.275l-.001.003-4.728 15.758a.414.414 0 0 0 .276.518l.003.001.153.046a.414.414 0 0 0 .518-.275l.001-.003 4.728-15.758a.414.414 0 0 0-.275-.518l-.003-.001z"/></symbol><symbol id="icon-4" viewBox="0 0 32 32"><path fill="#6d9bf5" style="fill:var(--color18,#6d9bf5)" d="M16 28c6.628 0 12-5.372 12-12S22.628 4 16 4 4 9.372 4 16s5.372 12 12 12z"/><path fill="#ff6b0a" style="fill:var(--color3,#ff6b0a)" d="M24.8 10.4a3.2 3.2 0 0 0 0-6.4 3.2 3.2 0 0 0 0 6.4z"/><path fill="#010101" style="fill:var(--color4,#010101)" d="M23 5.8h.636v2.8H23V5.8zm4 0-1.2 2.8h-.64l-1.2-2.8h.7l.852 2 .864-2H27z"/><path fill="#f1e324" style="fill:var(--color1,#f1e324)" d="m11.536 18.912-5.988 5.916 2.508 3.456 5.12.7 1.096-8.904-2.736-1.168z"/><path fill="#fff" style="fill:var(--color15,#fff)" d="m11.412 19.92-3.896 3.844 2.368-.82L8.708 26.9l2.704-2.804.144 1.596.564-1.516.604 3.244.86-6.62-2.172-.88z"/><path fill="#ff6b08" style="fill:var(--color2,#ff6b08)" d="m11.728 20.492-1.876 1.592 1.656-.82-1.184 2.604 1.72-2.284.02.908.436-.724.196 1.696.276-2.38-1.244-.592z"/><path style="fill:var(--color12,#000)" d="M11.548 12.768c-2.052.744-2.532 1.08-2.268 4.768.52-.8.564-1.52 1.68-1.56 0-.236.132-1.168.2-1.628.04-.288.376-1.548.388-1.58zm7.728 2.832c1.368 2.512-.092 3.276-1.98 4.768.436-.76.516-1.32-.052-2.284 0 0 1-1.024 1.2-1.292.256-.392.832-1.192.832-1.192zm-7.884 3.116s-.82 1.016-.044 1.66c.528.436 2.996 1.772 3.388-.252l-3.344-1.408z"/><path fill="#ff6b08" style="fill:var(--color2,#ff6b08)" d="M10.836 17.824c-1.024.576 2.18 2.2 3.964 2.448.292.04 1.516.216 1.036-.504l-1.508-.328-2.248-.876a.333.333 0 0 1-.073-.037l.001.001-1.172-.704z"/><path fill="#abb4b5" style="fill:var(--color19,#abb4b5)" d="m11.2 16.196-.364 1.656a6.186 6.186 0 0 0 4.986 1.886l-.022.001 1.092-1.62s-2.644.336-5.692-1.924z"/><path fill="#ff6b08" style="fill:var(--color2,#ff6b08)" d="M10.984 16s-.036-3.156 1.34-5.168a10.024 10.024 0 0 1 6.132-3.922l.064-.01s4.428 6-1.34 11.164c.02 0-2.496.968-6.196-2.064z"/><path fill="#fff" style="fill:var(--color15,#fff)" d="M15.892 15.72c1.613 0 2.92-1.246 2.92-2.784s-1.307-2.784-2.92-2.784-2.92 1.246-2.92 2.784 1.307 2.784 2.92 2.784z"/><path fill="#f1e324" style="fill:var(--color1,#f1e324)" d="M14.9 11.6c1.908-1.436 4.4 2.324 1.008 2.94-.94.188-2.924-.94-1.008-2.94z"/><path fill="#fff" style="fill:var(--color15,#fff)" d="M16.248 11.808a1.079 1.079 0 0 0-.432-.089l-.038.001h.002a1.029 1.029 0 0 0-.822.452l-.002.004c-.15.228-.257.498-.303.789l-.001.011a.156.156 0 0 0 .103.184h.001a.148.148 0 0 0 .184-.103v-.001c.041-.246.121-.467.233-.666l-.005.01a.811.811 0 0 1 .292-.29l.004-.002.048-.024c.032 0-.024 0 0 0l.092-.028.084-.02c.04 0-.028 0 0 0h.048a.964.964 0 0 1 .152 0s.048 0 0 0h.096l.096.028s.072.028 0 0a.155.155 0 0 0 .204-.056v-.001a.148.148 0 0 0-.055-.203h-.001l.02.004z"/></symbol></defs></svg>