<svg aria-hidden="true" style="width:0;height:0;position:absolute;overflow:hidden" xmlns="http://www.w3.org/2000/svg"><defs><symbol id="icon-logo-1-2-1" viewBox="0 0 33 32"><path style="fill:var(--color1,#000)" d="m32.647 29.915-1.389-4.793a4.104 4.104 0 0 1-.173-1.194c0-.601.126-1.173.353-1.69l-.011.027c.822-1.838 1.301-3.984 1.301-6.242 0-.211-.004-.421-.012-.63l.001.03C32.409 6.972 25.304.158 16.659.007 7.388-.154-.161 7.228.003 16.294c.153 8.452 7.123 15.398 15.763 15.7a16.653 16.653 0 0 0 6.294-.984l-.116.037c1.528-.543 3.188-.635 4.752-.199l3.888 1.081c1.257.35 2.42-.786 2.063-2.015zM9.052 16.005c0-3.948 3.273-7.148 7.311-7.148s7.311 3.2 7.311 7.148-3.273 7.149-7.311 7.149-7.311-3.201-7.311-7.149z"/><path fill="#0f2e9e" style="fill:var(--color2,#0f2e9e)" d="M31.002 23.222s-.057-.177-.169-.494c-.871-2.415-5.108-12.868-13.484-13.802 3.572.47 6.325 3.461 6.325 7.08 0 3.948-3.273 7.148-7.311 7.148v8.849c1.959 0 3.839-.334 5.58-.952 1.529-.543 3.189-.635 4.752-.199l3.888 1.08c1.257.348 2.42-.785 2.064-2.017l-1.389-4.793a4.171 4.171 0 0 1-.171-1.193c0-.187.012-.371.035-.551l-.002.021-.119-.178z"/></symbol><symbol id="icon-star-empty" viewBox="0 0 32 32"><path d="m32 12.408-11.056-1.607L16 .783l-4.944 10.018L0 12.408l8 7.798-1.889 11.011L16 26.018l9.889 5.199L24 20.206l8-7.798zM16 23.547l-6.983 3.671 1.334-7.776-5.65-5.507 7.808-1.134 3.492-7.075 3.492 7.075 7.807 1.134-5.65 5.507 1.334 7.776-6.983-3.671z"/></symbol><symbol id="icon-close-black-18dp-2-1-1" viewBox="0 0 32 32"><path d="m26.684 7.308-1.971-1.971L16.9 13.15 9.087 5.337 7.116 7.308l7.813 7.813-7.813 7.813 1.971 1.971 7.813-7.813 7.813 7.813 1.971-1.971-7.813-7.813 7.813-7.813z"/></symbol><symbol id="icon-menu_24px" viewBox="0 0 48 32"><path d="M0 5.333V0h48v5.333H0zm0 13.334h48v-5.333H0v5.333zM0 32h48v-5.333H0V32z"/></symbol><symbol id="icon-search" viewBox="0 0 32 32"><path d="m31.008 27.231-7.58-6.447c-.784-.705-1.622-1.029-2.299-.998a11.954 11.954 0 0 0 2.87-7.787c0-6.627-5.373-12-12-12s-12 5.373-12 12 5.373 12 12 12c2.972 0 5.691-1.081 7.787-2.87-.031.677.293 1.515.998 2.299l6.447 7.58c1.104 1.226 2.907 1.33 4.007.23s.997-2.903-.23-4.007zM12 20a8 8 0 1 1 0-16 8 8 0 0 1 0 16z"/></symbol></defs></svg>