<svg aria-hidden="true" style="position: absolute; width: 0; height: 0; overflow: hidden;" version="1.1" xmlns="http://www.w3.org/2000/svg" xmlns:xlink="http://www.w3.org/1999/xlink">
<defs>
<symbol id="icon-6" viewBox="0 0 32 32">
<path fill="#f1e324" style="fill: var(--color1, #f1e324)" d="M16 28c6.628 0 12-5.372 12-12s-5.372-12-12-12c-6.628 0-12 5.372-12 12s5.372 12 12 12z"></path>
<path fill="#ff6b08" style="fill: var(--color2, #ff6b08)" d="M16 24.808c4.864 0 8.808-3.944 8.808-8.808s-3.944-8.808-8.808-8.808-8.808 3.944-8.808 8.808 3.944 8.808 8.808 8.808z"></path>
<path fill="#f1e324" style="fill: var(--color1, #f1e324)" d="M16 22.648c3.672 0 6.648-2.976 6.648-6.648s-2.976-6.648-6.648-6.648c-3.672 0-6.648 2.976-6.648 6.648s2.976 6.648 6.648 6.648z"></path>
<path fill="#ff6b0a" style="fill: var(--color3, #ff6b0a)" d="M22.752 4h2.048c1.767 0 3.2 1.433 3.2 3.2s-1.433 3.2-3.2 3.2v0h-2.048c-1.767 0-3.2-1.433-3.2-3.2s1.433-3.2 3.2-3.2v0z"></path>
<path fill="#010101" style="fill: var(--color4, #010101)" d="M24.208 5.8l-1.2 2.8h-0.64l-1.2-2.8h0.7l0.852 2 0.864-2h0.624zM24.444 5.8h0.648v2.8h-0.648v-2.8zM25.756 5.8h0.644v2.8h-0.644v-2.8z"></path>
<path fill="#f1e324" style="fill: var(--color1, #f1e324)" d="M9.284 14.668l4.108 2.084 0.124-0.376 2.484-7.396 2.496 7.396 0.128 0.376 0.324-0.164 3.78-1.92-2.52 8h-8.4l-2.524-8z"></path>
<path fill="#efaf2e" style="fill: var(--color5, #efaf2e)" d="M12.844 17.5l1.78 0.9 0.152 0.080 0.060-0.176 1.164-3.484 1.2 3.488 0.060 0.176 0.152-0.080 1.788-0.904-1.2 3.768h-3.972l-1.184-3.768z"></path>
<path fill="#f1e324" style="fill: var(--color1, #f1e324)" d="M8.844 14.82c0.322 0 0.584-0.294 0.584-0.656s-0.262-0.656-0.584-0.656c-0.322 0-0.584 0.294-0.584 0.656s0.262 0.656 0.584 0.656zM16.012 8.98c0.322 0 0.584-0.294 0.584-0.656s-0.262-0.656-0.584-0.656c-0.322 0-0.584 0.294-0.584 0.656s0.262 0.656 0.584 0.656zM23.156 14.784c0.322 0 0.584-0.294 0.584-0.656s-0.262-0.656-0.584-0.656c-0.322 0-0.584 0.294-0.584 0.656s0.262 0.656 0.584 0.656z"></path>
</symbol>
<symbol id="icon-2" viewBox="0 0 32 32">
<path fill="#35bfb7" style="fill: var(--color6, #35bfb7)" d="M16 28c6.628 0 12-5.372 12-12s-5.372-12-12-12c-6.628 0-12 5.372-12 12s5.372 12 12 12z"></path>
<path fill="#ff6b0a" style="fill: var(--color3, #ff6b0a)" d="M24.8 10.4c1.767 0 3.2-1.433 3.2-3.2s-1.433-3.2-3.2-3.2v0c-1.767 0-3.2 1.433-3.2 3.2s1.433 3.2 3.2 3.2v0z"></path>
<path fill="#010101" style="fill: var(--color4, #010101)" d="M23.82 5.8h0.648v2.8h-0.648v-2.8zM25.132 5.8h0.648v2.8h-0.648v-2.8z"></path>
<path fill="#ff6b08" style="fill: var(--color2, #ff6b08)" d="M18.32 8.996h-4.532v2.92h4.532v-2.92zM10.968 16.6l0.632 0.2c0.17-0.829 0.447-1.565 0.82-2.24l-0.020 0.040c0.391-0.716 0.839-1.333 1.357-1.885l-0.005 0.005-0.632-0.2c-0.57 0.544-1.052 1.173-1.428 1.868l-0.020 0.040c-0.346 0.628-0.594 1.361-0.7 2.139l-0.004 0.033zM21.128 16.584l-0.632 0.2c-0.17-0.829-0.447-1.565-0.82-2.24l0.020 0.040c-0.391-0.715-0.838-1.332-1.353-1.886l0.005 0.006 0.632-0.196c0.572 0.54 1.058 1.164 1.44 1.853l0.020 0.039c0.342 0.632 0.585 1.37 0.685 2.153l0.003 0.031z"></path>
<path fill="#ff6b08" style="fill: var(--color2, #ff6b08)" d="M19.008 11.912h-5.908v7.272h5.908v-7.272z"></path>
<path fill="#1e6058" style="fill: var(--color7, #1e6058)" d="M17.552 9.8h-3v0.656h3v-0.656z"></path>
<path fill="#ff6b08" style="fill: var(--color2, #ff6b08)" d="M17.552 19.188h-0.6v3.552h0.6v-3.552zM15.104 19.188h-0.6v3.552h0.6v-3.552zM21.94 17.436c0.018 0.077 0.028 0.166 0.028 0.257 0 0.442-0.239 0.828-0.594 1.036l-0.006 0.003c-0.12 0.060-0.088-0.988-0.148-1.028-0.167 0.008-0.333 0.032-0.496 0.072-0.132 0.024-0.324 0.060-0.304 0.172 0.068 0.352 0.296 0.912 0.176 0.94-0.212 0.052-0.828-0.4-0.936-1-0.013-0.067-0.020-0.143-0.020-0.222 0-0.581 0.397-1.070 0.935-1.208l0.009-0.002c0.061-0.011 0.132-0.018 0.204-0.018 0.584 0 1.068 0.43 1.151 0.992l0.001 0.006zM12.336 17.64c-0.049 0.519-0.441 0.934-0.946 1.015l-0.007 0.001c-0.136 0 0.232-0.964 0.192-1.020-0.141-0.049-0.308-0.089-0.479-0.111l-0.013-0.001c-0.132-0.024-0.324-0.060-0.34 0.052-0.052 0.356-0.020 0.964-0.136 0.952-0.22-0.028-0.648-0.692-0.56-1.28 0.090-0.581 0.587-1.020 1.186-1.020 0.050 0 0.099 0.003 0.147 0.009l-0.006-0.001c0.562 0.107 0.981 0.595 0.981 1.18 0 0.079-0.008 0.157-0.022 0.232l0.001-0.008z"></path>
<path fill="#ff6b08" style="fill: var(--color2, #ff6b08)" d="M16.4 23.004c0.1-0.394 0.451-0.682 0.87-0.682s0.77 0.287 0.869 0.676l0.001 0.006z"></path>
<path fill="#ff6b08" style="fill: var(--color2, #ff6b08)" d="M13.832 23.004c0.060-0.387 0.391-0.68 0.791-0.68 0.029 0 0.057 0.002 0.085 0.004l-0.003-0c0.023-0.002 0.050-0.004 0.077-0.004 0.399 0 0.73 0.293 0.79 0.675l0.001 0.005z"></path>
<path fill="#1e6058" style="fill: var(--color7, #1e6058)" d="M17.244 15.552c0.475 0 0.86-0.406 0.86-0.908s-0.385-0.908-0.86-0.908c-0.475 0-0.86 0.406-0.86 0.908s0.385 0.908 0.86 0.908zM16.836 17.22h-2.708v0.916h2.708v-0.916z"></path>
<path fill="#f1e324" style="fill: var(--color1, #f1e324)" d="M13.292 13.472c0.464 0 0.84-0.376 0.84-0.84s-0.376-0.84-0.84-0.84v0c-0.464 0-0.84 0.376-0.84 0.84s0.376 0.84 0.84 0.84v0zM18.804 13.472c0.464 0 0.84-0.376 0.84-0.84s-0.376-0.84-0.84-0.84v0c-0.464 0-0.84 0.376-0.84 0.84s0.376 0.84 0.84 0.84v0z"></path>
</symbol>
<symbol id="icon-1" viewBox="0 0 32 32">
<path fill="#d7d9dc" style="fill: var(--color8, #d7d9dc)" d="M16 28c6.628 0 12-5.372 12-12s-5.372-12-12-12c-6.628 0-12 5.372-12 12s5.372 12 12 12z"></path>
<path fill="#717777" style="fill: var(--color9, #717777)" d="M18.596 28c0 4.692-3.744 4.664-6.868 4.664s-5.656-3.564-5.656-7.96c0-4.396 2.532-7.956 5.656-7.956s6.88 5.28 6.868 11.252z"></path>
<path fill="#afafaf" style="fill: var(--color10, #afafaf)" d="M24.8 10.4c1.767 0 3.2-1.433 3.2-3.2s-1.433-3.2-3.2-3.2v0c-1.767 0-3.2 1.433-3.2 3.2s1.433 3.2 3.2 3.2v0z"></path>
<path fill="#010101" style="fill: var(--color4, #010101)" d="M24.476 5.8h0.648v2.8h-0.648v-2.8zM14.976 6.62c-0.8 0 0.46-0.56-0.352-0.756s-2.768-0.756-3.256 0c-0.488 0.756-1.3 0.996-2.448 1.6s-1.244 0.9-0.992 1.656c0.135 0.64 0.492 1.18 0.985 1.547l0.007 0.005c0.66 0.548 0.7 0.252 0.7 1.152s-0.040 1.904 0.56 0.952-0.448-1.712 0.544-2.508c0.992-0.796 1.736-1.6 2.4-1.148s1.676 0.88 2.2 0.444c0.312-0.253 0.578-0.549 0.791-0.881l0.009-0.015c0.596-0.208 1.6-0.736 0.896-1.2-0.9-0.596-1.236-0.848-2.044-0.848z"></path>
<path fill="#f1f1f0" style="fill: var(--color11, #f1f1f0)" d="M15.708 6.4c0.719 0.735 1.172 1.734 1.2 2.839l0 0.005c0.060 2.052 0.096 4.32 0.024 5.416-0.152 2.268-2.476 2.5-2.476 2.5v1.272l-0.064 0.036c-0.72 0.383-1.574 0.608-2.48 0.608-1.054 0-2.037-0.304-2.866-0.829l0.022 0.013-0.076-5.6c-0.487-0.080-0.861-0.476-0.908-0.968l-0-0.004c-0.216-0.992 0.4-1.26 0.876-1.324v-0.86c-0.076-2.368 1.256-4.4 3.66-4.4h0.22c1.128 0.062 2.133 0.546 2.867 1.295l0.001 0.001z"></path>
<path fill="#010101" style="fill: var(--color4, #010101)" d="M8.996 10.4h0.036v-0.040h-0.044l0.008 0.040zM8.072 11.696v0zM9.064 12.656v-0.040h-0.036v0.044l0.036-0.004zM9.064 18.256v0.024h0.020l0.024-0.036-0.044 0.012zM14.452 18.5v0zM14.516 18.468h0.020v-0.024h-0.040l0.020 0.024zM14.48 17.112h-0.040v0.040h0.040v-0.040zM15.768 6.368v0zM12.664 5.168h0.224v-0.084h-0.224v0.084zM9.064 9.528c-0.006-0.087-0.009-0.189-0.009-0.292 0-1.039 0.336-1.999 0.906-2.778l-0.009 0.013c0.619-0.797 1.577-1.305 2.654-1.305 0.026 0 0.052 0 0.078 0.001l-0.004-0v-0.084c-0.023-0.001-0.050-0.001-0.078-0.001-1.104 0-2.087 0.52-2.716 1.329l-0.006 0.008c-0.571 0.78-0.913 1.758-0.913 2.816 0 0.104 0.003 0.207 0.010 0.31l-0.001-0.014 0.088-0.004zM9.064 10.384v-0.856h-0.084v0.856h0.084zM9.016 10.344c-0.268 0.028-0.52 0.143-0.716 0.328-0.158 0.188-0.254 0.433-0.254 0.7 0 0.126 0.021 0.247 0.060 0.359l-0.002-0.008h0.080c-0.034-0.097-0.053-0.209-0.053-0.326 0-0.246 0.087-0.471 0.231-0.648l-0.001 0.002c0.164-0.179 0.382-0.304 0.629-0.351l0.007-0.001 0.020-0.056zM8.104 11.724c0.052 0.291 0.188 0.544 0.38 0.74l-0-0c0.156 0.142 0.351 0.233 0.56 0.26v-0.084c-0.201-0.026-0.378-0.112-0.517-0.241l0.001 0.001c-0.181-0.184-0.308-0.422-0.355-0.688l-0.001-0.008-0.068 0.020zM9.168 18.272l-0.072-5.6h-0.088l0.076 5.6h0.084zM11.764 19.040c-0.974-0.036-1.872-0.329-2.638-0.813l0.022 0.013-0.044 0.072c0.756 0.474 1.669 0.768 2.647 0.8l0.009 0 0.004-0.072zM14.4 18.4c-0.711 0.381-1.556 0.604-2.453 0.604-0.076 0-0.151-0.002-0.226-0.005l0.011 0v0.084c0.067 0.003 0.146 0.005 0.225 0.005 0.91 0 1.766-0.227 2.516-0.627l-0.029 0.014-0.044-0.076zM14.464 18.368l-0.064 0.032 0.040 0.076 0.064-0.032-0.040-0.076zM14.432 17.132v1.264h0.084v-1.272h-0.084v0.008zM16.904 14.628c-0.027 0.891-0.529 1.658-1.259 2.062l-0.013 0.006c-0.23 0.132-0.496 0.243-0.776 0.319l-0.024 0.005c-0.108 0.028-0.2 0.044-0.264 0.056h-0.096v0.124h0.104l0.268-0.060c0.314-0.084 0.59-0.2 0.844-0.349l-0.016 0.009c0.767-0.424 1.286-1.216 1.316-2.132l0-0.004-0.084-0.036zM16.904 9.216c0.056 2.052 0.092 4.32 0 5.412h0.084c0.072-1.096 0.036-3.368 0-5.416l-0.084 0.004zM15.704 6.416c0.715 0.722 1.167 1.705 1.2 2.794l0 0.006h0.084c-0.032-1.124-0.496-2.133-1.232-2.872l0 0-0.052 0.072zM12.904 5.152c1.101 0.064 2.080 0.535 2.8 1.264l0 0 0.060-0.060c-0.739-0.748-1.746-1.229-2.865-1.288l-0.011-0 0.016 0.084z"></path>
<path fill="#000" style="fill: var(--color12, #000)" d="M16.304 10.072c-0.020-0.044-0.047-0.081-0.080-0.112l-0-0c-0.034-0.029-0.074-0.053-0.117-0.071l-0.003-0.001c-0.022-0.005-0.047-0.007-0.072-0.007s-0.050 0.003-0.074 0.008l0.002-0c-0.002-0-0.005-0-0.008-0-0.1 0-0.191 0.036-0.261 0.097l0.001-0c-0.069 0.058-0.113 0.144-0.116 0.239v0.001c0 0.001-0 0.003-0 0.004 0 0.094 0.042 0.179 0.108 0.236l0 0c0.034 0.030 0.074 0.055 0.117 0.071l0.003 0.001c0.036 0.016 0.077 0.025 0.12 0.025 0.008 0 0.016-0 0.025-0.001l-0.001 0c0.002 0 0.005 0 0.008 0 0.1 0 0.191-0.036 0.261-0.097l-0.001 0c0.069-0.058 0.113-0.144 0.116-0.239v-0.001c0.001-0.007 0.001-0.015 0.001-0.024 0-0.047-0.011-0.091-0.030-0.13l0.001 0.002z"></path>
<path fill="#010101" style="fill: var(--color4, #010101)" d="M13.020 10.072c-0.019-0.043-0.043-0.080-0.072-0.112l0 0c-0.031-0.029-0.066-0.053-0.106-0.071l-0.002-0.001c-0.019-0.005-0.041-0.007-0.064-0.007s-0.045 0.003-0.066 0.008l0.002-0c-0.003-0-0.007-0-0.011-0-0.089 0-0.168 0.037-0.225 0.096l-0 0c-0.063 0.061-0.104 0.145-0.108 0.239l-0 0.001c0.002 0.045 0.011 0.090 0.028 0.132s0.041 0.079 0.072 0.108l0 0c0.030 0.030 0.066 0.055 0.106 0.071l0.002 0.001c0.030 0.016 0.066 0.025 0.104 0.025 0.007 0 0.014-0 0.021-0.001l-0.001 0c0.003 0 0.006 0 0.010 0 0.090 0 0.171-0.037 0.23-0.096l0-0c0.062-0.061 0.102-0.146 0.104-0.24v-0c0-0.006 0.001-0.013 0.001-0.020 0-0.048-0.009-0.093-0.025-0.135l0.001 0.002z"></path>
<path fill="#010101" style="fill: var(--color4, #010101)" d="M12.964 8.72c-0.055-0.008-0.12-0.012-0.185-0.012-0.159 0-0.311 0.026-0.453 0.075l0.010-0.003c-0.211 0.068-0.392 0.179-0.54 0.324l0-0c-0.112 0.12-0.148 0.22-0.116 0.252s0.24-0.232 0.636-0.36c0.396-0.128 0.884-0.048 0.884-0.148s-0.072-0.104-0.236-0.128zM16.424 9.028c-0.125-0.069-0.274-0.11-0.433-0.11-0.021 0-0.041 0.001-0.062 0.002l0.003-0c-0.178 0.014-0.339 0.080-0.47 0.181l0.002-0.002c-0.1 0.088-0.132 0.172-0.104 0.208s0.288-0.164 0.58-0.18c0.292-0.016 0.56 0.176 0.616 0.092s-0.020-0.12-0.132-0.192z"></path>
<path fill="#010101" style="fill: var(--color4, #010101)" d="M14.888 5.2c-0.8 0 0.464-0.56-0.348-0.756s-2.768-0.756-3.256 0c-0.488 0.756-1.3 0.992-2.448 1.6s-1.236 0.88-0.992 1.636c0.136 0.641 0.492 1.182 0.985 1.551l0.007 0.005c0.66 0.548 0.7 0.252 0.7 1.148s-0.040 1.904 0.56 0.952-0.448-1.708 0.544-2.508c0.992-0.8 1.732-1.6 2.4-1.148s1.664 0.896 2.208 0.448c0.314-0.252 0.58-0.548 0.791-0.881l0.009-0.015c0.596-0.204 1.6-0.732 0.896-1.2-0.908-0.592-1.244-0.832-2.056-0.832z"></path>
<path fill="#010101" style="fill: var(--color4, #010101)" d="M13.796 10.088l0.288 0.348h0.48l0.092 0.208-0.524 0.124-0.344 0.32-2.308-0.044-0.424-1.204 2.74 0.248z"></path>
<path fill="#010101" style="fill: var(--color4, #010101)" d="M15.064 10.060l-0.288 0.348h-0.752l0.108 0.36 0.596-0.028 0.344 0.32 2.308-0.044 0.428-1.204-2.744 0.248z"></path>
<path fill="#010101" style="fill: var(--color4, #010101)" d="M11.196 9.856l-2.56-0.208v0.28l2.74 0.388-0.18-0.46z"></path>
</symbol>
<symbol id="icon-3" viewBox="0 0 32 32">
<path fill="#00a198" style="fill: var(--color13, #00a198)" d="M16 28c6.628 0 12-5.372 12-12s-5.372-12-12-12c-6.628 0-12 5.372-12 12s5.372 12 12 12z"></path>
<path fill="#ff6b0a" style="fill: var(--color3, #ff6b0a)" d="M24.8 10.4c1.767 0 3.2-1.433 3.2-3.2s-1.433-3.2-3.2-3.2v0c-1.767 0-3.2 1.433-3.2 3.2s1.433 3.2 3.2 3.2v0z"></path>
<path fill="#010101" style="fill: var(--color4, #010101)" d="M23.164 5.8h0.648v2.8h-0.648v-2.8zM24.476 5.8h0.648v2.8h-0.648v-2.8zM25.788 5.8h0.648v2.8h-0.648v-2.8z"></path>
<path fill="#d7f463" style="fill: var(--color14, #d7f463)" d="M6.436 9.816l-1.728 12.984c-0 0.002-0 0.004-0 0.006 0 0.062 0.050 0.112 0.112 0.112 0.022 0 0.043-0.007 0.061-0.018l-0 0 1.12-0.596c0.044-0.023 0.096-0.037 0.151-0.037 0.1 0 0.19 0.045 0.249 0.117l0 0.001 1.396 1.836 0.584-7.728-1.944-6.676z"></path>
<path fill="#d7f463" style="fill: var(--color14, #d7f463)" d="M6.424 10.144l-1.56 12.344c-0 0.001-0 0.002-0 0.003 0 0.084 0.068 0.152 0.152 0.152 0.035 0 0.067-0.012 0.092-0.031l-0 0 0.8-0.528c0.064-0.046 0.144-0.073 0.231-0.073 0.131 0 0.247 0.063 0.32 0.16l0.001 0.001 0.948 1.284c0.048 0.064 0.164 0.028 0.156-0.048l-1.092-13.264c0-0.024-0.044-0.028-0.048 0z"></path>
<path fill="#d7f463" style="fill: var(--color14, #d7f463)" d="M6.16 22c0.128 0 0.242 0.061 0.315 0.155l0.001 0.001 0.948 1.284c0.048 0.064 0.164 0.028 0.156-0.048l-0.132-1.624-1.308 0.232h0.020z"></path>
<path fill="#010101" style="fill: var(--color4, #010101)" d="M6.472 9.808l1.32 14.412 15.4-2.6-3.62-11.236-13.1-0.576z"></path>
<path fill="#d7f463" style="fill: var(--color14, #d7f463)" d="M7.184 10.12l0.908 13.34 14.484-2.332-3.056-10.364-12.336-0.644z"></path>
<path fill="#fff" style="fill: var(--color15, #fff)" d="M8.072 16.684l0.688 6.324 13.156-2.12-1.22-4.752-12.624 0.548z"></path>
<path fill="#d7f463" style="fill: var(--color14, #d7f463)" d="M6.852 9.976l12.608 0.6s1.228 3.256 2.448 5.096c0.701 1.041 1.874 1.716 3.205 1.716 0.011 0 0.021-0 0.032-0h-0.002c-2.149 1.074-4.863 2.226-7.647 3.231l-0.573 0.181c-2.036 0.699-4.409 1.215-6.864 1.45l-0.128 0.010s-2.956-3.56-3.080-12.284z"></path>
<path fill="#fff" style="fill: var(--color15, #fff)" d="M8.296 9.396c-0.232 0-0.4 0.184-0.456 0.472h0.24c0.036-0.168 0.112-0.272 0.216-0.272s0.26 0.176 0.26 0.428c0 0.252-0.136 0.428-0.26 0.428-0.006-0.001-0.013-0.002-0.021-0.002-0.060 0-0.108 0.048-0.108 0.108s0.048 0.108 0.108 0.108c0.007 0 0.014-0.001 0.021-0.002l-0.001 0c0.287-0.038 0.506-0.281 0.506-0.575 0-0.019-0.001-0.037-0.003-0.055l0 0.002c0.003-0.020 0.004-0.044 0.004-0.068 0-0.294-0.22-0.537-0.505-0.572l-0.003-0zM10.376 9.488c-0.236 0-0.4 0.184-0.456 0.472h0.24c0.036-0.168 0.112-0.272 0.216-0.272s0.26 0.176 0.26 0.428c0 0.252-0.136 0.428-0.26 0.428-0.006-0.001-0.013-0.002-0.021-0.002-0.060 0-0.108 0.048-0.108 0.108s0.048 0.108 0.108 0.108c0.007 0 0.014-0.001 0.021-0.002l-0.001 0c0.286-0.037 0.504-0.279 0.504-0.572 0-0.024-0.002-0.048-0.004-0.071l0 0.003c0.002-0.017 0.003-0.037 0.003-0.057 0-0.292-0.218-0.534-0.5-0.571l-0.003-0zM12.456 9.6c-0.236 0-0.4 0.184-0.456 0.472h0.24c0.036-0.164 0.108-0.272 0.216-0.272s0.26 0.176 0.26 0.428c0 0.252-0.136 0.428-0.26 0.428-0.006-0.001-0.013-0.002-0.021-0.002-0.060 0-0.108 0.048-0.108 0.108s0.048 0.108 0.108 0.108c0.007 0 0.014-0.001 0.021-0.002l-0.001 0c0.286-0.037 0.504-0.279 0.504-0.572 0-0.024-0.002-0.048-0.004-0.071l0 0.003c0.002-0.017 0.003-0.037 0.003-0.057 0-0.292-0.218-0.534-0.5-0.571l-0.003-0zM14.536 9.672c-0.236 0-0.4 0.184-0.456 0.472h0.24c0.036-0.164 0.108-0.272 0.216-0.272s0.26 0.176 0.26 0.428c0 0.252-0.14 0.428-0.26 0.428-0.006-0.001-0.013-0.002-0.021-0.002-0.060 0-0.108 0.048-0.108 0.108s0.048 0.108 0.108 0.108c0.007 0 0.014-0.001 0.021-0.002l-0.001 0c0.286-0.037 0.504-0.279 0.504-0.572 0-0.024-0.002-0.048-0.004-0.071l0 0.003c0.002-0.016 0.002-0.034 0.002-0.053 0-0.293-0.217-0.535-0.499-0.574l-0.003-0zM16.652 9.756c-0.236 0-0.4 0.184-0.456 0.472h0.24c0.036-0.168 0.112-0.272 0.216-0.272s0.26 0.176 0.26 0.428c0 0.252-0.136 0.428-0.26 0.428-0.006-0.001-0.013-0.002-0.021-0.002-0.060 0-0.108 0.048-0.108 0.108s0.048 0.108 0.108 0.108c0.007 0 0.014-0.001 0.021-0.002l-0.001 0c0.285-0.038 0.502-0.279 0.502-0.571 0-0.019-0.001-0.037-0.003-0.055l0 0.002c0.003-0.022 0.005-0.047 0.005-0.072 0-0.293-0.219-0.535-0.502-0.571l-0.003-0zM18.684 9.852c-0.232 0-0.4 0.184-0.456 0.472h0.24c0.040-0.168 0.112-0.272 0.216-0.272s0.264 0.176 0.264 0.428c0 0.252-0.148 0.44-0.264 0.44-0.006-0.001-0.013-0.002-0.021-0.002-0.060 0-0.108 0.048-0.108 0.108s0.048 0.108 0.108 0.108c0.007 0 0.014-0.001 0.021-0.002l-0.001 0c0.284 0 0.5-0.28 0.5-0.64s-0.216-0.64-0.5-0.64z"></path>
<path fill="#fff" style="fill: var(--color15, #fff)" d="M21.492 15.68c-0.726-1.163-1.431-2.52-2.030-3.932l-0.074-0.196-11.264-0.4c0 7.372 2.512 10.42 2.512 10.42 2.279-0.221 4.37-0.678 6.361-1.354l-0.197 0.058c3.18-1.052 6.972-2.8 6.972-2.8s-1.2-0.172-2.28-1.796z"></path>
<path fill="#010101" style="fill: var(--color4, #010101)" d="M19.388 11.552l-11.264-0.4c0 0.728 0.024 1.408 0.068 2.052l11.896-0.1c-0.308-0.652-0.56-1.224-0.7-1.552z"></path>
<path fill="#eb1e31" style="fill: var(--color16, #eb1e31)" d="M12.988 12.592l-4.056-0.048c-0.002 0-0.004 0-0.006 0-0.064 0-0.117-0.046-0.126-0.107l-0-0.001-0.036-0.292c-0-0.001-0-0.003-0-0.005 0-0.068 0.056-0.124 0.124-0.124 0.004 0 0.008 0 0.013 0.001l-0.001-0 4 0.060c0.001-0 0.002-0 0.004-0 0.057 0 0.106 0.036 0.124 0.087l0 0.001 0.080 0.276c0.002 0.008 0.003 0.018 0.003 0.028 0 0.068-0.055 0.124-0.123 0.124h-0zM12.564 20.408c1.699 0 3.076-1.377 3.076-3.076s-1.377-3.076-3.076-3.076v0c-1.699 0-3.076 1.377-3.076 3.076s1.377 3.076 3.076 3.076v0z"></path>
<path fill="#fff" style="fill: var(--color15, #fff)" d="M12.524 19.772c1.312 0 2.376-1.064 2.376-2.376s-1.064-2.376-2.376-2.376v0c-1.312 0-2.376 1.064-2.376 2.376s1.064 2.376 2.376 2.376v0z"></path>
<path fill="#eb1e31" style="fill: var(--color16, #eb1e31)" d="M12.168 18.708l0.204 0.168 0.164-0.204 1.528-1.928 0.176-0.224-0.24-0.152-0.204-0.132-0.196-0.128-0.144 0.184-1.2 1.524-0.78-0.652-0.164 0.144-0.18 0.152-0.232 0.2 0.236 0.196 1.032 0.852z"></path>
</symbol>
<symbol id="icon-5" viewBox="0 0 32 32">
<path fill="#273da4" style="fill: var(--color17, #273da4)" d="M16 28c6.628 0 12-5.372 12-12s-5.372-12-12-12c-6.628 0-12 5.372-12 12s5.372 12 12 12z"></path>
<path fill="#f1e324" style="fill: var(--color1, #f1e324)" d="M15.48 9.376l4.496 0.356-4.352 6.032 6.352-0.18-11.084 8.796 3.552-6.4-4.816 0.196 5.852-8.8z"></path>
<path fill="#000" style="fill: var(--color12, #000)" d="M11.872 8.508c-0.972 0.072-1.472 0.144-2.352 0.168 0.422-0.675 0.915-1.256 1.48-1.757l0.008-0.007c0.824-0.072 1.224-0.108 2-0.116-0.473 0.479-0.856 1.047-1.123 1.677l-0.013 0.035zM16.096 9.2c-0.776-0.376-1.028-0.592-1.892-0.704 0.042-0.601 0.28-1.14 0.65-1.559l-0.002 0.003c0.593 0.151 1.172 0.356 1.728 0.612-0.312 0.369-0.502 0.85-0.502 1.375 0 0.096 0.006 0.191 0.019 0.284l-0.001-0.011zM20.452 11.076c-0.88-0.376-1.352-0.56-2.244-0.932 0.1-0.754 0.362-1.431 0.751-2.018l-0.011 0.018c1.064 0.204 1.656 0.288 2.656 0.508-0.408 0.684-0.796 1.483-1.115 2.315l-0.037 0.109zM23.568 13.232c-0.225-0.51-0.594-0.922-1.056-1.193l-0.012-0.007c0.496-1.12 0.732-1.672 1.164-2.676 0.421 0.223 0.741 0.589 0.9 1.031l0.004 0.013c-0.376 1.1-0.568 1.672-1 2.832zM25.544 14.976c-0.8-0.036-1-0.188-1.324-0.572 0.368-1.2 0.548-1.776 0.896-2.928 0.296 0.328 0.488 0.448 1.328 0.376-0.36 1.26-0.54 1.88-0.9 3.124z"></path>
<path fill="#fff" style="fill: var(--color15, #fff)" d="M14.204 8.504c-0.35-0.044-0.755-0.069-1.166-0.069s-0.816 0.025-1.214 0.074l0.048-0.005c0.278-0.662 0.659-1.227 1.129-1.705l-0.001 0.001c0.621-0.028 1.244 0.024 1.852 0.152-0.367 0.415-0.605 0.952-0.648 1.544l-0 0.008zM18.208 10.144c-0.896-0.372-1.34-0.56-2.112-0.936-0.011-0.082-0.017-0.177-0.017-0.273 0-0.525 0.19-1.006 0.504-1.378l-0.003 0.003c0.672 0.244 1.47 0.449 2.292 0.578l0.076 0.010c-0.377 0.568-0.64 1.243-0.737 1.972l-0.003 0.024zM22.5 12c-0.582-0.345-1.259-0.661-1.966-0.911l-0.082-0.025c0.356-0.935 0.742-1.728 1.188-2.482l-0.040 0.073c0.722 0.1 1.42 0.331 2.060 0.68-0.717 1.758-1.107 2.635-1.505 3.507l0.345-0.843zM24.22 14.4c-0.249-0.338-0.467-0.724-0.638-1.135l-0.014-0.037c0.4-1.16 0.624-1.732 1-2.8 0.127 0.406 0.314 0.758 0.554 1.068l-0.006-0.008c-0.348 1.14-0.528 1.712-0.896 2.912z"></path>
<path fill="#000" style="fill: var(--color12, #000)" d="M10.12 12.488c-1.556 0.356-2.332 0.56-3.416 0.568 0.596-0.8 0.88-1.288 1.436-2.192 1.075-0.065 2.075-0.208 3.048-0.424l-0.128 0.024c-0.289 0.786-0.606 1.453-0.974 2.087l0.034-0.063zM16.98 12c-0.8-0.504-1.5-0.472-2.964-0.288 0.142-0.529 0.194-1.078 0.156-1.624 1.156-0.032 1.66 0.048 2.356 0.548 0.233 0.392 0.393 0.854 0.45 1.348l0.002 0.016zM18.92 15.824c-0.308-0.8-0.4-1.26-0.736-2.060 0.006-0.151 0.009-0.329 0.009-0.508 0-0.442-0.021-0.88-0.062-1.311l0.004 0.055c0.6 0.592 0.884 0.908 1.488 1.5-0.292 0.952-0.424 1.424-0.704 2.324zM21.376 19.132c-0.451-0.514-0.908-0.984-1.388-1.429l-0.012-0.011c0.488-1.084 0.74-1.66 1.252-2.8 0.517 0.337 0.94 0.776 1.25 1.29l0.010 0.018c-0.444 1.176-0.672 1.776-1.112 2.932zM23.724 21.156c-0.571-0.064-1.067-0.343-1.413-0.753l-0.003-0.003c0.4-1.2 0.584-1.788 0.968-2.992 0.317 0.413 0.809 0.677 1.363 0.68h0.001c-0.364 1.224-0.548 1.844-0.916 3.068z"></path>
<path fill="#fff" style="fill: var(--color15, #fff)" d="M14 11.696c-1.535 0.227-2.853 0.506-4.141 0.857l0.245-0.057c0.334-0.571 0.651-1.238 0.91-1.933l0.030-0.091c0.91-0.204 1.978-0.347 3.069-0.398l0.043-0.002c0.008 0.104 0.012 0.225 0.012 0.347 0 0.454-0.061 0.894-0.176 1.311l0.008-0.035zM18.184 13.764c-0.332-0.8-0.4-1.276-1.2-1.78-0.059-0.51-0.219-0.972-0.461-1.38l0.009 0.016c0.594 0.429 1.117 0.882 1.597 1.377l0.003 0.003c0.055 0.586 0.072 1.176 0.052 1.764zM19.976 17.692c-0.479-0.514-0.843-1.14-1.048-1.835l-0.008-0.033c0.292-0.9 0.4-1.372 0.704-2.324 0.483 0.498 1.006 0.951 1.566 1.356l0.034 0.024c-0.508 1.152-0.76 1.728-1.248 2.812zM22.308 20.4c-0.316-0.371-0.623-0.781-0.903-1.209l-0.029-0.047c0.44-1.156 0.668-1.756 1.112-2.944 0.25 0.456 0.515 0.849 0.812 1.215l-0.012-0.015c-0.396 1.2-0.592 1.8-0.98 3z"></path>
<path fill="#000" style="fill: var(--color12, #000)" d="M16.528 10.62c-0.696-0.5-1.2-0.58-2.356-0.548-0.013-0.18-0.020-0.391-0.020-0.603 0-0.34 0.019-0.675 0.056-1.005l-0.004 0.041c0.864 0.112 1.116 0.328 1.892 0.704 0.048 0.525 0.202 1.004 0.441 1.43l-0.009-0.018zM19.624 13.5c-0.604-0.592-0.888-0.908-1.488-1.5-0.020-0.198-0.031-0.428-0.031-0.661 0-0.422 0.038-0.836 0.11-1.237l-0.006 0.042c0.892 0.372 1.364 0.556 2.244 0.932-0.261 0.62-0.543 1.425-0.784 2.249l-0.044 0.175zM22.488 16.188c-0.32-0.532-0.743-0.971-1.245-1.299l-0.015-0.009c0.512-1.152 0.8-1.744 1.272-2.868 0.474 0.278 0.843 0.69 1.062 1.184l0.006 0.016c-0.42 1.188-0.64 1.784-1.080 2.976zM24.64 18.076c-0.555-0.003-1.047-0.267-1.361-0.676l-0.003-0.004c0.4-1.2 0.576-1.804 0.944-2.992 0.324 0.4 0.516 0.536 1.324 0.572-0.344 1.244-0.54 1.864-0.904 3.1z"></path>
<path fill="#fff" style="fill: var(--color15, #fff)" d="M14.172 10.072c-1.046 0.048-2.087 0.182-3.112 0.4 0.324-0.8 0.456-1.2 0.8-1.956 0.775-0.092 1.558-0.092 2.332 0-0.029 0.268-0.045 0.578-0.045 0.892 0 0.234 0.009 0.465 0.027 0.694l-0.002-0.030zM18.136 12c-0.483-0.498-1.006-0.951-1.566-1.356l-0.035-0.024c-0.234-0.41-0.391-0.892-0.439-1.406l-0.001-0.014c0.772 0.376 1.2 0.564 2.112 0.936-0.066 0.36-0.104 0.775-0.104 1.198 0 0.235 0.012 0.466 0.034 0.695l-0.002-0.029zM21.228 14.88c-0.594-0.429-1.117-0.882-1.597-1.377l-0.003-0.003c0.285-0.999 0.567-1.804 0.888-2.589l-0.060 0.165c0.788 0.272 1.463 0.584 2.1 0.954l-0.056-0.030c-0.5 1.136-0.76 1.728-1.272 2.88zM23.276 17.396c-0.285-0.351-0.55-0.744-0.779-1.159l-0.021-0.041c0.44-1.2 0.66-1.792 1.080-2.956 0.174 0.412 0.397 0.801 0.664 1.16-0.368 1.2-0.56 1.796-0.944 2.996z"></path>
<path fill="#000" style="fill: var(--color12, #000)" d="M14.172 10.072c-1.046 0.048-2.087 0.182-3.112 0.4 0.324-0.8 0.456-1.2 0.8-1.956 0.775-0.092 1.558-0.092 2.332 0-0.029 0.268-0.045 0.578-0.045 0.892 0 0.234 0.009 0.465 0.027 0.694l-0.002-0.030zM18.136 12c-0.483-0.498-1.006-0.951-1.566-1.356l-0.035-0.024c-0.234-0.41-0.391-0.892-0.439-1.406l-0.001-0.014c0.772 0.376 1.2 0.564 2.112 0.936-0.066 0.36-0.104 0.775-0.104 1.198 0 0.235 0.012 0.466 0.034 0.695l-0.002-0.029zM21.228 14.88c-0.594-0.429-1.117-0.882-1.597-1.377l-0.003-0.003c0.285-0.999 0.567-1.804 0.888-2.589l-0.060 0.165c0.788 0.272 1.463 0.584 2.1 0.954l-0.056-0.030c-0.5 1.136-0.76 1.728-1.272 2.88zM23.276 17.396c-0.285-0.351-0.55-0.744-0.779-1.159l-0.021-0.041c0.44-1.2 0.66-1.792 1.080-2.956 0.174 0.412 0.397 0.801 0.664 1.16-0.368 1.2-0.56 1.796-0.944 2.996z"></path>
<path fill="#fff" style="fill: var(--color15, #fff)" d="M16.528 10.62c-0.696-0.5-1.2-0.58-2.356-0.548-0.013-0.18-0.020-0.391-0.020-0.603 0-0.34 0.019-0.675 0.056-1.005l-0.004 0.041c0.864 0.112 1.116 0.328 1.892 0.704 0.048 0.525 0.202 1.004 0.441 1.43l-0.009-0.018zM11.060 10.464c-0.962 0.208-1.938 0.342-2.92 0.4 0.556-0.908 0.8-1.372 1.38-2.188 0.88-0.024 1.38-0.096 2.352-0.168-0.356 0.74-0.488 1.148-0.812 1.956zM19.624 13.5c-0.604-0.592-0.888-0.908-1.488-1.5-0.020-0.198-0.031-0.428-0.031-0.661 0-0.422 0.038-0.836 0.11-1.237l-0.006 0.042c0.892 0.372 1.364 0.556 2.244 0.932-0.261 0.62-0.543 1.425-0.784 2.249l-0.044 0.175zM22.488 16.188c-0.32-0.532-0.743-0.971-1.245-1.299l-0.015-0.009c0.512-1.152 0.8-1.744 1.272-2.868 0.474 0.278 0.843 0.69 1.062 1.184l0.006 0.016c-0.42 1.188-0.64 1.784-1.080 2.976zM24.64 18.076c-0.555-0.003-1.047-0.267-1.361-0.676l-0.003-0.004c0.4-1.2 0.576-1.804 0.944-2.992 0.324 0.4 0.516 0.536 1.324 0.572-0.344 1.244-0.54 1.864-0.904 3.1z"></path>
<path fill="#000" style="fill: var(--color12, #000)" d="M16.452 13.54c-0.892-0.528-1.688-0.456-3.364-0.192 0.446-0.437 0.768-0.999 0.908-1.63l0.004-0.022c1.464-0.184 2.152-0.216 2.964 0.288 0.060 0.576 0.012 0.876-0.512 1.556zM18.024 18c-0.063-0.832-0.172-1.66-0.328-2.48 0.306-0.49 0.488-1.085 0.488-1.723 0-0.013-0-0.026-0-0.039l0 0.002c0.336 0.8 0.428 1.244 0.736 2.060-0.248 0.836-0.553 1.559-0.925 2.239l0.029-0.059zM20.308 21.896c-0.468-0.612-0.948-0.888-1.52-1.644 0.472-0.952 0.704-1.472 1.2-2.56 0.492 0.456 0.949 0.926 1.381 1.418l0.019 0.022-1.080 2.764zM22.8 24.192c-0.589-0.142-1.087-0.467-1.444-0.911l-0.004-0.005c0.372-1.12 0.564-1.708 0.948-2.888 0.347 0.418 0.843 0.701 1.406 0.767l0.010 0.001c-0.36 1.244-0.544 1.836-0.916 3.036z"></path>
<path fill="#fff" style="fill: var(--color15, #fff)" d="M13.088 13.348c-1.676 0.264-2.676 0.568-4.4 0.96 0.572-0.508 1.047-1.111 1.403-1.786l0.017-0.034c1.043-0.294 2.361-0.573 3.703-0.776l0.193-0.024c-0.144 0.656-0.467 1.221-0.915 1.659l-0.001 0.001zM17.696 15.524c-0.224-0.94-0.348-1.46-1.244-2 0.524-0.68 0.572-0.98 0.528-1.556 0.8 0.504 0.872 0.98 1.2 1.78 0 0.018 0.001 0.038 0.001 0.059 0 0.635-0.18 1.228-0.493 1.731l0.008-0.014zM18.8 20.252c-0.572-0.76-0.636-1.256-0.764-2.248 0.343-0.621 0.648-1.344 0.875-2.1l0.021-0.080c0.213 0.728 0.577 1.355 1.059 1.871l-0.003-0.003c-0.496 1.108-0.728 1.608-1.188 2.56zM21.36 23.276c-0.347-0.407-0.693-0.857-1.015-1.324l-0.037-0.056c0.4-1.044 0.628-1.6 1.068-2.764 0.309 0.48 0.616 0.894 0.947 1.286l-0.015-0.018c-0.384 1.168-0.576 1.756-0.948 2.876z"></path>
<path fill="#000" style="fill: var(--color12, #000)" d="M13.088 13.348c-1.676 0.264-2.676 0.568-4.4 0.96 0.572-0.508 1.047-1.111 1.403-1.786l0.017-0.034c1.043-0.294 2.361-0.573 3.703-0.776l0.193-0.024c-0.144 0.656-0.467 1.221-0.915 1.659l-0.001 0.001zM17.696 15.524c-0.224-0.94-0.348-1.46-1.244-2 0.524-0.68 0.572-0.98 0.528-1.556 0.8 0.504 0.872 0.98 1.2 1.78 0 0.018 0.001 0.038 0.001 0.059 0 0.635-0.18 1.228-0.493 1.731l0.008-0.014zM18.8 20.252c-0.572-0.76-0.636-1.256-0.764-2.248 0.343-0.621 0.648-1.344 0.875-2.1l0.021-0.080c0.213 0.728 0.577 1.355 1.059 1.871l-0.003-0.003c-0.496 1.108-0.728 1.608-1.188 2.56zM21.36 23.276c-0.347-0.407-0.693-0.857-1.015-1.324l-0.037-0.056c0.4-1.044 0.628-1.6 1.068-2.764 0.309 0.48 0.616 0.894 0.947 1.286l-0.015-0.018c-0.384 1.168-0.576 1.756-0.948 2.876z"></path>
<path fill="#fff" style="fill: var(--color15, #fff)" d="M16.452 13.54c-0.892-0.528-1.688-0.456-3.364-0.192 0.446-0.437 0.768-0.999 0.908-1.63l0.004-0.022c1.464-0.184 2.152-0.216 2.964 0.288 0.060 0.576 0.012 0.876-0.512 1.556zM18.024 18c-0.063-0.832-0.172-1.66-0.328-2.48 0.306-0.49 0.488-1.085 0.488-1.723 0-0.013-0-0.026-0-0.039l0 0.002c0.336 0.8 0.428 1.244 0.736 2.060-0.248 0.836-0.553 1.559-0.925 2.239l0.029-0.059zM20.308 21.896c-0.468-0.612-0.948-0.888-1.52-1.644 0.472-0.952 0.704-1.472 1.2-2.56 0.492 0.456 0.949 0.926 1.381 1.418l0.019 0.022-1.080 2.764zM22.8 24.192c-0.589-0.142-1.087-0.467-1.444-0.911l-0.004-0.005c0.372-1.12 0.564-1.708 0.948-2.888 0.347 0.418 0.843 0.701 1.406 0.767l0.010 0.001c-0.36 1.244-0.544 1.836-0.916 3.036zM8.7 14.308c-1.712 0.4-2.544 0.592-3.54 0.444 0.598-0.483 1.109-1.042 1.527-1.669l0.017-0.027c1.084 0 1.86-0.212 3.416-0.568-0.373 0.709-0.848 1.312-1.414 1.814l-0.007 0.006z"></path>
<path fill="#010101" style="fill: var(--color4, #010101)" d="M27.7 11.426l-0.154-0.046c-0.036-0.011-0.077-0.018-0.12-0.018-0.187 0-0.345 0.123-0.398 0.293l-0.001 0.003-4.728 15.758c-0.011 0.036-0.018 0.077-0.018 0.12 0 0.187 0.124 0.346 0.294 0.398l0.003 0.001 0.153 0.046c0.036 0.011 0.077 0.018 0.12 0.018 0.187 0 0.345-0.123 0.398-0.293l0.001-0.003 4.728-15.758c0.011-0.036 0.018-0.077 0.018-0.12 0-0.187-0.123-0.345-0.293-0.398l-0.003-0.001z"></path>
</symbol>
<symbol id="icon-4" viewBox="0 0 32 32">
<path fill="#6d9bf5" style="fill: var(--color18, #6d9bf5)" d="M16 28c6.628 0 12-5.372 12-12s-5.372-12-12-12c-6.628 0-12 5.372-12 12s5.372 12 12 12z"></path>
<path fill="#ff6b0a" style="fill: var(--color3, #ff6b0a)" d="M24.8 10.4c1.767 0 3.2-1.433 3.2-3.2s-1.433-3.2-3.2-3.2v0c-1.767 0-3.2 1.433-3.2 3.2s1.433 3.2 3.2 3.2v0z"></path>
<path fill="#010101" style="fill: var(--color4, #010101)" d="M23 5.8h0.636v2.8h-0.636v-2.8zM27 5.8l-1.2 2.8h-0.64l-1.2-2.8h0.7l0.852 2 0.864-2h0.624z"></path>
<path fill="#f1e324" style="fill: var(--color1, #f1e324)" d="M11.536 18.912l-5.988 5.916 2.508 3.456 5.12 0.7 1.096-8.904-2.736-1.168z"></path>
<path fill="#fff" style="fill: var(--color15, #fff)" d="M11.412 19.92l-3.896 3.844 2.368-0.82-1.176 3.956 2.704-2.804 0.144 1.596 0.564-1.516 0.604 3.244 0.86-6.62-2.172-0.88z"></path>
<path fill="#ff6b08" style="fill: var(--color2, #ff6b08)" d="M11.728 20.492l-1.876 1.592 1.656-0.82-1.184 2.604 1.72-2.284 0.020 0.908 0.436-0.724 0.196 1.696 0.276-2.38-1.244-0.592z"></path>
<path fill="#000" style="fill: var(--color12, #000)" d="M11.548 12.768c-2.052 0.744-2.532 1.080-2.268 4.768 0.52-0.8 0.564-1.52 1.68-1.56 0-0.236 0.132-1.168 0.2-1.628 0.040-0.288 0.376-1.548 0.388-1.58zM19.276 15.6c1.368 2.512-0.092 3.276-1.98 4.768 0.436-0.76 0.516-1.32-0.052-2.284 0 0 1-1.024 1.2-1.292 0.256-0.392 0.832-1.192 0.832-1.192zM11.392 18.716s-0.82 1.016-0.044 1.66c0.528 0.436 2.996 1.772 3.388-0.252l-3.344-1.408z"></path>
<path fill="#ff6b08" style="fill: var(--color2, #ff6b08)" d="M10.836 17.824c-1.024 0.576 2.18 2.2 3.964 2.448 0.292 0.040 1.516 0.216 1.036-0.504l-1.508-0.328-2.248-0.876c-0.027-0.010-0.051-0.022-0.073-0.037l0.001 0.001-1.172-0.704z"></path>
<path fill="#abb4b5" style="fill: var(--color19, #abb4b5)" d="M11.2 16.196l-0.364 1.656c1.13 1.176 2.717 1.907 4.474 1.907 0.173 0 0.343-0.007 0.512-0.021l-0.022 0.001 1.092-1.62s-2.644 0.336-5.692-1.924z"></path>
<path fill="#ff6b08" style="fill: var(--color2, #ff6b08)" d="M10.984 16s-0.036-3.156 1.34-5.168c1.473-2.005 3.636-3.428 6.132-3.922l0.064-0.010s4.428 6-1.34 11.164c0.020 0-2.496 0.968-6.196-2.064z"></path>
<path fill="#fff" style="fill: var(--color15, #fff)" d="M15.892 15.72c1.613 0 2.92-1.246 2.92-2.784s-1.307-2.784-2.92-2.784-2.92 1.246-2.92 2.784 1.307 2.784 2.92 2.784z"></path>
<path fill="#f1e324" style="fill: var(--color1, #f1e324)" d="M14.9 11.6c1.908-1.436 4.4 2.324 1.008 2.94-0.94 0.188-2.924-0.94-1.008-2.94z"></path>
<path fill="#fff" style="fill: var(--color15, #fff)" d="M16.248 11.808c-0.127-0.056-0.276-0.089-0.432-0.089-0.013 0-0.025 0-0.038 0.001l0.002-0c-0.343 0.011-0.643 0.187-0.822 0.452l-0.002 0.004c-0.15 0.228-0.257 0.498-0.303 0.789l-0.001 0.011c-0.003 0.011-0.004 0.023-0.004 0.036 0 0.069 0.045 0.128 0.107 0.148l0.001 0c0.012 0.004 0.026 0.006 0.041 0.006 0.068 0 0.126-0.046 0.143-0.109l0-0.001c0.041-0.246 0.121-0.467 0.233-0.666l-0.005 0.010c0.072-0.122 0.173-0.221 0.292-0.29l0.004-0.002 0.048-0.024c0.032 0-0.024 0 0 0l0.092-0.028 0.084-0.020c0.040 0-0.028 0 0 0h0.048c0.051-0.004 0.101-0.004 0.152 0 0 0 0.048 0 0 0h0.096l0.096 0.028s0.072 0.028 0 0c0.021 0.011 0.045 0.017 0.072 0.017 0.056 0 0.104-0.029 0.132-0.073l0-0.001c0.013-0.021 0.020-0.047 0.020-0.074 0-0.055-0.030-0.104-0.075-0.129l-0.001-0 0.020 0.004z"></path>
</symbol>
</defs>
</svg>
