<svg aria-hidden="true" style="position: absolute; width: 0; height: 0; overflow: hidden;" version="1.1" xmlns="http://www.w3.org/2000/svg" xmlns:xlink="http://www.w3.org/1999/xlink">
<defs>
<symbol id="icon-logo-1-2-1" viewBox="0 0 33 32">
<path fill="#000" style="fill: var(--color1, #000)" d="M32.647 29.915l-1.389-4.793c-0.11-0.357-0.173-0.768-0.173-1.194 0-0.601 0.126-1.173 0.353-1.69l-0.011 0.027c0.822-1.838 1.301-3.984 1.301-6.242 0-0.211-0.004-0.421-0.012-0.63l0.001 0.030c-0.308-8.451-7.413-15.265-16.058-15.416-9.271-0.161-16.82 7.221-16.656 16.287 0.153 8.452 7.123 15.398 15.763 15.7 0.181 0.007 0.392 0.011 0.605 0.011 1.998 0 3.913-0.351 5.689-0.995l-0.116 0.037c1.528-0.543 3.188-0.635 4.752-0.199l3.888 1.081c1.257 0.35 2.42-0.786 2.063-2.015zM9.052 16.005c0-3.948 3.273-7.148 7.311-7.148s7.311 3.2 7.311 7.148-3.273 7.149-7.311 7.149c-4.038 0-7.311-3.201-7.311-7.149z"></path>
<path fill="#0f2e9e" style="fill: var(--color2, #0f2e9e)" d="M31.002 23.222s-0.057-0.177-0.169-0.494c-0.871-2.415-5.108-12.868-13.484-13.802 3.572 0.47 6.325 3.461 6.325 7.080 0 3.948-3.273 7.148-7.311 7.148v8.849c1.959 0 3.839-0.334 5.58-0.952 1.529-0.543 3.189-0.635 4.752-0.199l3.888 1.080c1.257 0.348 2.42-0.785 2.064-2.017l-1.389-4.793c-0.108-0.357-0.171-0.768-0.171-1.193 0-0.187 0.012-0.371 0.035-0.551l-0.002 0.021-0.119-0.178z"></path>
</symbol>

<symbol id="icon-star-empty" viewBox="0 0 32 32">
<path d="M32 12.408l-11.056-1.607-4.944-10.018-4.944 10.018-11.056 1.607 8 7.798-1.889 11.011 9.889-5.199 9.889 5.199-1.889-11.011 8-7.798zM16 23.547l-6.983 3.671 1.334-7.776-5.65-5.507 7.808-1.134 3.492-7.075 3.492 7.075 7.807 1.134-5.65 5.507 1.334 7.776-6.983-3.671z"></path>
</symbol>

<symbol id="icon-close-black-18dp-2-1-1" viewBox="0 0 32 32">
<path d="M26.684 7.308l-1.971-1.971-7.813 7.813-7.813-7.813-1.971 1.971 7.813 7.813-7.813 7.813 1.971 1.971 7.813-7.813 7.813 7.813 1.971-1.971-7.813-7.813 7.813-7.813z"></path>
</symbol>

<symbol id="icon-menu_24px" viewBox="0 0 48 32">
<path d="M0 5.333v-5.333h48v5.333h-48zM0 18.667h48v-5.333h-48v5.333zM0 32h48v-5.333h-48v5.333z"></path>
</symbol>

<symbol id="icon-search" viewBox="0 0 32 32">
<path d="M31.008 27.231l-7.58-6.447c-0.784-0.705-1.622-1.029-2.299-0.998 1.789-2.096 2.87-4.815 2.87-7.787 0-6.627-5.373-12-12-12s-12 5.373-12 12 5.373 12 12 12c2.972 0 5.691-1.081 7.787-2.87-0.031 0.677 0.293 1.515 0.998 2.299l6.447 7.58c1.104 1.226 2.907 1.33 4.007 0.23s0.997-2.903-0.23-4.007zM12 20c-4.418 0-8-3.582-8-8s3.582-8 8-8 8 3.582 8 8-3.582 8-8 8z"></path>
</symbol>

</defs>
</svg>
